<svg width="26" height="28" viewBox="0 0 26 28" fill="none" xmlns="http://www.w3.org/2000/svg">
<path d="M12.9725 25.375C10.8877 25.375 8.84974 24.7079 7.11631 23.458C5.38287 22.2081 4.03183 20.4315 3.23402 18.353C2.43621 16.2745 2.22746 13.9874 2.63418 11.7809C3.0409 9.57432 4.04482 7.54749 5.51898 5.95667C6.99315 4.36584 8.87134 3.28248 10.9161 2.84357C12.9608 2.40467 15.0802 2.62993 17.0063 3.49088C18.9324 4.35182 20.5786 5.80978 21.7369 7.68039C22.8951 9.551 23.5133 11.7502 23.5133 14C23.5133 17.0168 22.4028 19.9101 20.426 22.0433C18.4492 24.1766 15.7681 25.375 12.9725 25.375ZM12.9725 4.37501C11.2084 4.37501 9.484 4.9395 8.01726 5.99711C6.55051 7.05472 5.40731 8.55794 4.73224 10.3167C4.05717 12.0754 3.88054 14.0107 4.22469 15.8778C4.56884 17.7448 5.41831 19.4598 6.66568 20.8059C7.91304 22.152 9.50229 23.0687 11.2324 23.4401C12.9626 23.8114 14.7559 23.6208 16.3857 22.8923C18.0155 22.1639 19.4084 20.9302 20.3885 19.3474C21.3685 17.7645 21.8916 15.9037 21.8916 14C21.8916 11.4473 20.952 8.99914 19.2793 7.1941C17.6066 5.38906 15.338 4.37501 12.9725 4.37501Z" fill="black" fill-opacity="0.75"/>
<path d="M17.4325 19.6875C17.3258 19.6882 17.22 19.6661 17.1213 19.6226C17.0225 19.579 16.9326 19.5148 16.8568 19.4337L12.3973 14.6212C12.3221 14.5395 12.2627 14.4425 12.2223 14.3359C12.182 14.2293 12.1615 14.1152 12.1621 14V7C12.1621 6.76794 12.2475 6.54538 12.3996 6.38128C12.5517 6.21719 12.7579 6.125 12.973 6.125C13.188 6.125 13.3942 6.21719 13.5463 6.38128C13.6984 6.54538 13.7838 6.76794 13.7838 7V13.6413L18.0082 18.1913C18.0842 18.2726 18.1446 18.3694 18.1857 18.476C18.2269 18.5826 18.2481 18.697 18.2481 18.8125C18.2481 18.928 18.2269 19.0424 18.1857 19.149C18.1446 19.2556 18.0842 19.3524 18.0082 19.4337C17.9325 19.5148 17.8426 19.579 17.7438 19.6226C17.645 19.6661 17.5393 19.6882 17.4325 19.6875Z" fill="black" fill-opacity="0.75"/>
</svg>
