<svg width="29" height="28" viewBox="0 0 29 28" fill="none" xmlns="http://www.w3.org/2000/svg">
<path d="M25 7H18.875V5.25C18.875 4.78587 18.6906 4.34075 18.3624 4.01256C18.0342 3.68437 17.5891 3.5 17.125 3.5H11.875C11.4109 3.5 10.9658 3.68437 10.6376 4.01256C10.3094 4.34075 10.125 4.78587 10.125 5.25V7H4C3.53587 7 3.09075 7.18437 2.76256 7.51256C2.43437 7.84075 2.25 8.28587 2.25 8.75V22.75C2.25 23.2141 2.43437 23.6592 2.76256 23.9874C3.09075 24.3156 3.53587 24.5 4 24.5H25C25.4641 24.5 25.9092 24.3156 26.2374 23.9874C26.5656 23.6592 26.75 23.2141 26.75 22.75V8.75C26.75 8.28587 26.5656 7.84075 26.2374 7.51256C25.9092 7.18437 25.4641 7 25 7ZM11.875 5.25H17.125V7H11.875V5.25ZM25 8.75V16.625H4V8.75H25ZM4 22.75V18.375H25V22.75H4Z" fill="#131313" fill-opacity="0.75"/>
<path d="M13.625 15.75H15.375C15.6071 15.75 15.8296 15.6578 15.9937 15.4937C16.1578 15.3296 16.25 15.1071 16.25 14.875C16.25 14.6429 16.1578 14.4204 15.9937 14.2563C15.8296 14.0922 15.6071 14 15.375 14H13.625C13.3929 14 13.1704 14.0922 13.0063 14.2563C12.8422 14.4204 12.75 14.6429 12.75 14.875C12.75 15.1071 12.8422 15.3296 13.0063 15.4937C13.1704 15.6578 13.3929 15.75 13.625 15.75Z" fill="#131313" fill-opacity="0.75"/>
</svg>
