<svg width="190" height="52" viewBox="0 0 190 52" fill="none" xmlns="http://www.w3.org/2000/svg">
<g clip-path="url(#clip0_203_14)">
<path d="M178.49 5.27387V1.30354H177.153V0.747437H180.505V1.30354H179.174V5.27387H178.49Z" fill="#131313"/>
<path d="M180.855 5.27387V0.747437H181.662L183.193 3.76075L184.717 0.747437H185.525V5.27387H184.84V1.93077L183.458 4.62724H182.928L181.54 1.93724V5.27387H180.855Z" fill="#131313"/>
<path d="M79.7066 24.9423V4.35351H72.6793V0.801331H91.1777V4.35351H84.1159V24.9423H79.7066Z" fill="#131313"/>
<path d="M97.1363 25.3561C95.4139 25.3561 93.8869 24.9882 92.5548 24.2525C91.2229 23.5168 90.1779 22.4822 89.42 21.1487C88.6622 19.8152 88.2833 18.2748 88.2833 16.5274C88.2833 14.7571 88.6509 13.1822 89.3856 11.8027C90.1434 10.4232 91.1769 9.35413 92.4859 8.59541C93.818 7.81369 95.3795 7.42285 97.1707 7.42285C98.8474 7.42285 100.329 7.7907 101.614 8.52644C102.901 9.26214 103.9 10.2738 104.611 11.5613C105.346 12.8258 105.714 14.2398 105.714 15.8032C105.714 16.0561 105.702 16.3205 105.679 16.5964C105.679 16.8723 105.668 17.1597 105.645 17.4586H92.6581C92.7502 18.7921 93.2093 19.8382 94.036 20.5969C94.8859 21.3556 95.9078 21.735 97.1018 21.735C97.9975 21.735 98.744 21.5395 99.3409 21.1487C99.961 20.7349 100.42 20.206 100.719 19.5623H105.197C104.876 20.6429 104.336 21.6315 103.578 22.5282C102.843 23.4018 101.925 24.0916 100.822 24.5974C99.743 25.1032 98.5142 25.3561 97.1363 25.3561ZM97.1707 11.0095C96.0916 11.0095 95.1383 11.3199 94.3116 11.9407C93.4848 12.5384 92.9568 13.4581 92.727 14.6996H101.236C101.167 13.573 100.753 12.6764 99.9954 12.0096C99.2376 11.3429 98.2962 11.0095 97.1707 11.0095Z" fill="#131313"/>
<path d="M115.382 25.3561C113.636 25.3561 112.098 24.9768 110.766 24.218C109.434 23.4593 108.378 22.4017 107.597 21.0452C106.839 19.6887 106.46 18.1368 106.46 16.3895C106.46 14.6421 106.839 13.0902 107.597 11.7337C108.378 10.3772 109.434 9.31964 110.766 8.56092C112.098 7.80221 113.636 7.42285 115.382 7.42285C117.563 7.42285 119.401 7.99763 120.893 9.1472C122.386 10.2738 123.339 11.8372 123.752 13.8374H119.102C118.872 13.0098 118.413 12.366 117.724 11.9062C117.058 11.4233 116.266 11.1819 115.347 11.1819C114.13 11.1819 113.097 11.6417 112.247 12.5614C111.397 13.4811 110.972 14.7571 110.972 16.3895C110.972 18.0219 111.397 19.2979 112.247 20.2175C113.097 21.1372 114.13 21.597 115.347 21.597C116.266 21.597 117.058 21.3671 117.724 20.9073C118.413 20.4474 118.872 19.7922 119.102 18.9415H123.752C123.339 20.8728 122.386 22.4247 120.893 23.5973C119.401 24.7698 117.563 25.3561 115.382 25.3561Z" fill="#131313"/>
<path d="M125.255 24.9423V0.111572H129.664V10.4577C130.238 9.51504 131.007 8.77931 131.972 8.25053C132.96 7.69873 134.085 7.42284 135.348 7.42284C137.461 7.42284 139.091 8.08957 140.239 9.42308C141.411 10.7566 141.996 12.7108 141.996 15.2859V24.9423H137.621V15.6997C137.621 14.2283 137.323 13.1017 136.726 12.32C136.152 11.5383 135.233 11.1474 133.97 11.1474C132.73 11.1474 131.696 11.5843 130.87 12.4579C130.066 13.3316 129.664 14.5501 129.664 16.1136V24.9423H125.255Z" fill="#131313"/>
<path d="M143.801 24.9423V7.8367H147.694L148.038 10.7336C148.567 9.72198 149.324 8.91727 150.312 8.31951C151.322 7.72173 152.505 7.42285 153.86 7.42285C155.973 7.42285 157.615 8.08958 158.786 9.4231C159.957 10.7566 160.543 12.7108 160.543 15.2859V24.9423H156.133V15.6997C156.133 14.2283 155.835 13.1017 155.238 12.32C154.641 11.5383 153.711 11.1475 152.448 11.1475C151.208 11.1475 150.186 11.5843 149.382 12.458C148.601 13.3316 148.21 14.5502 148.21 16.1136V24.9423H143.801Z" fill="#131313"/>
<path d="M170.546 25.3561C168.893 25.3561 167.4 24.9768 166.068 24.218C164.759 23.4593 163.714 22.4132 162.933 21.0797C162.175 19.7232 161.797 18.1598 161.797 16.3895C161.797 14.6191 162.187 13.0672 162.968 11.7337C163.749 10.3772 164.794 9.31964 166.103 8.56092C167.435 7.80221 168.927 7.42285 170.581 7.42285C172.211 7.42285 173.681 7.80221 174.99 8.56092C176.322 9.31964 177.367 10.3772 178.125 11.7337C178.906 13.0672 179.296 14.6191 179.296 16.3895C179.296 18.1598 178.906 19.7232 178.125 21.0797C177.367 22.4132 176.322 23.4593 174.99 24.218C173.658 24.9768 172.177 25.3561 170.546 25.3561ZM170.546 21.5281C171.695 21.5281 172.694 21.1027 173.543 20.252C174.393 19.3784 174.818 18.0908 174.818 16.3895C174.818 14.6881 174.393 13.4121 173.543 12.5614C172.694 11.6877 171.706 11.2509 170.581 11.2509C169.409 11.2509 168.399 11.6877 167.549 12.5614C166.723 13.4121 166.309 14.6881 166.309 16.3895C166.309 18.0908 166.723 19.3784 167.549 20.252C168.399 21.1027 169.398 21.5281 170.546 21.5281Z" fill="#131313"/>
<path d="M84.6326 51.7602C82.3591 51.7602 80.3727 51.2429 78.6732 50.2083C76.974 49.1737 75.6534 47.7368 74.7117 45.8974C73.7703 44.0351 73.2994 41.874 73.2994 39.4139C73.2994 36.9308 73.7816 34.7465 74.7462 32.8613C75.7339 30.9529 77.1231 29.47 78.9143 28.4125C80.7288 27.3318 82.8758 26.7916 85.356 26.7916C88.1807 26.7916 90.5232 27.4698 92.3833 28.8263C94.2435 30.1829 95.4492 32.0565 96.0003 34.4477H91.0743C90.707 33.3212 90.0409 32.4475 89.0764 31.8267C88.1118 31.183 86.8717 30.8611 85.356 30.8611C82.9447 30.8611 81.0845 31.6314 79.7755 33.1717C78.4665 34.6891 77.812 36.7813 77.812 39.4483C77.812 42.1154 78.4552 44.1847 79.7411 45.656C81.0501 47.1045 82.8185 47.8287 85.046 47.8287C87.2278 47.8287 88.8697 47.2424 89.972 46.0699C91.0975 44.8744 91.7749 43.3109 92.0044 41.3796H85.9072V38.0689H96.4482V51.3464H92.3833L92.0389 48.1736C91.2582 49.3232 90.282 50.2083 89.1108 50.8291C87.9396 51.4498 86.4471 51.7602 84.6326 51.7602Z" fill="#131313"/>
<path d="M106.522 51.7602C104.8 51.7602 103.273 51.3925 101.94 50.6566C100.609 49.9208 99.5635 48.8862 98.8057 47.5528C98.0478 46.2194 97.6689 44.6788 97.6689 42.9315C97.6689 41.1611 98.0365 39.5863 98.7712 38.2068C99.5291 36.8273 100.562 35.7582 101.871 34.9995C103.204 34.2179 104.765 33.827 106.556 33.827C108.233 33.827 109.714 34.1947 111 34.9305C112.286 35.6664 113.285 36.6778 113.997 37.9654C114.732 39.2298 115.099 40.6438 115.099 42.2073C115.099 42.4603 115.088 42.7246 115.065 43.0005C115.065 43.2764 115.054 43.5639 115.03 43.8627H102.044C102.136 45.1961 102.595 46.2423 103.422 47.001C104.272 47.7597 105.293 48.1391 106.487 48.1391C107.383 48.1391 108.13 47.9438 108.727 47.5528C109.347 47.139 109.806 46.6101 110.104 45.9664H114.583C114.261 47.0471 113.721 48.0356 112.964 48.9323C112.229 49.8061 111.31 50.4958 110.208 51.0015C109.129 51.5072 107.9 51.7602 106.522 51.7602ZM106.556 37.4136C105.477 37.4136 104.524 37.724 103.697 38.3448C102.87 38.9426 102.342 39.8622 102.113 41.1037H110.621C110.552 39.9772 110.139 39.0806 109.381 38.4137C108.623 37.7469 107.682 37.4136 106.556 37.4136Z" fill="#131313"/>
<path d="M116.397 51.3464V34.2408H120.289L120.634 37.1377C121.162 36.126 121.92 35.3215 122.907 34.7236C123.918 34.1258 125.1 33.827 126.455 33.827C128.568 33.827 130.21 34.4938 131.381 35.8272C132.552 37.1606 133.138 39.1151 133.138 41.69V51.3464H128.729V42.1039C128.729 40.6325 128.43 39.5057 127.833 38.7241C127.236 37.9425 126.306 37.5516 125.043 37.5516C123.803 37.5516 122.781 37.9883 121.977 38.8621C121.196 39.7358 120.806 40.9542 120.806 42.5177V51.3464H116.397Z" fill="#131313"/>
<path d="M143.245 51.7602C141.523 51.7602 139.996 51.3925 138.663 50.6566C137.332 49.9208 136.287 48.8862 135.529 47.5528C134.771 46.2194 134.392 44.6788 134.392 42.9315C134.392 41.1611 134.76 39.5863 135.494 38.2068C136.252 36.8273 137.285 35.7582 138.595 34.9995C139.927 34.2179 141.488 33.827 143.279 33.827C144.956 33.827 146.437 34.1947 147.723 34.9305C149.009 35.6664 150.008 36.6778 150.72 37.9654C151.455 39.2298 151.822 40.6438 151.822 42.2073C151.822 42.4603 151.811 42.7246 151.788 43.0005C151.788 43.2764 151.777 43.5639 151.753 43.8627H138.767C138.859 45.1961 139.318 46.2423 140.145 47.001C140.995 47.7597 142.016 48.1391 143.21 48.1391C144.106 48.1391 144.853 47.9438 145.45 47.5528C146.07 47.139 146.529 46.6101 146.827 45.9664H151.306C150.984 47.0471 150.444 48.0356 149.687 48.9323C148.952 49.8061 148.033 50.4958 146.931 51.0015C145.852 51.5072 144.623 51.7602 143.245 51.7602ZM143.279 37.4136C142.2 37.4136 141.247 37.724 140.42 38.3448C139.593 38.9426 139.065 39.8622 138.836 41.1037H147.344C147.275 39.9772 146.862 39.0806 146.104 38.4137C145.346 37.7469 144.405 37.4136 143.279 37.4136Z" fill="#131313"/>
<path d="M160.182 51.7602C158.666 51.7602 157.334 51.5188 156.185 51.036C155.037 50.5303 154.119 49.8405 153.43 48.9668C152.741 48.093 152.327 47.0816 152.189 45.9319H156.633C156.771 46.5988 157.139 47.1735 157.736 47.6563C158.356 48.1162 159.148 48.346 160.112 48.346C161.077 48.346 161.777 48.1507 162.214 47.7597C162.673 47.3688 162.903 46.9205 162.903 46.4147C162.903 45.6789 162.581 45.1848 161.938 44.9318C161.295 44.6559 160.4 44.3916 159.251 44.1386C158.517 43.9777 157.77 43.7821 157.012 43.5523C156.255 43.3225 155.554 43.035 154.911 42.6901C154.291 42.3224 153.786 41.8624 153.395 41.3107C153.005 40.736 152.809 40.0346 152.809 39.2069C152.809 37.6895 153.407 36.4135 154.601 35.3789C155.818 34.3443 157.518 33.827 159.699 33.827C161.72 33.827 163.328 34.2982 164.522 35.2409C165.739 36.1837 166.462 37.4826 166.692 39.138H162.524C162.271 37.8735 161.318 37.2412 159.665 37.2412C158.838 37.2412 158.195 37.402 157.736 37.724C157.299 38.046 157.081 38.4482 157.081 38.931C157.081 39.4368 157.414 39.8393 158.08 40.1381C158.746 40.4369 159.63 40.7128 160.732 40.9658C161.927 41.2417 163.018 41.5521 164.005 41.8969C165.016 42.2189 165.819 42.713 166.416 43.3799C167.013 44.0235 167.312 44.9547 167.312 46.1733C167.335 47.2308 167.06 48.1852 166.485 49.0358C165.911 49.8863 165.084 50.5532 164.005 51.036C162.926 51.5188 161.651 51.7602 160.182 51.7602Z" fill="#131313"/>
<path d="M171.184 31.5853C170.38 31.5853 169.714 31.3439 169.186 30.8611C168.68 30.3783 168.428 29.7691 168.428 29.0333C168.428 28.2975 168.68 27.6999 169.186 27.2399C169.714 26.7572 170.38 26.5157 171.184 26.5157C171.987 26.5157 172.642 26.7572 173.147 27.2399C173.675 27.6999 173.94 28.2975 173.94 29.0333C173.94 29.7691 173.675 30.3783 173.147 30.8611C172.642 31.3439 171.987 31.5853 171.184 31.5853ZM168.979 51.3464V34.2408H173.388V51.3464H168.979Z" fill="#131313"/>
<path d="M182.641 51.7602C181.125 51.7602 179.793 51.5188 178.645 51.036C177.497 50.5303 176.578 49.8405 175.889 48.9668C175.2 48.093 174.787 47.0816 174.649 45.9319H179.093C179.231 46.5988 179.598 47.1735 180.195 47.6563C180.815 48.1162 181.607 48.346 182.572 48.346C183.537 48.346 184.237 48.1507 184.673 47.7597C185.133 47.3688 185.362 46.9205 185.362 46.4147C185.362 45.6789 185.041 45.1848 184.398 44.9318C183.755 44.6559 182.859 44.3916 181.711 44.1386C180.976 43.9777 180.23 43.7821 179.472 43.5523C178.714 43.3225 178.014 43.035 177.37 42.6901C176.75 42.3224 176.245 41.8624 175.855 41.3107C175.464 40.736 175.269 40.0346 175.269 39.2069C175.269 37.6895 175.866 36.4135 177.06 35.3789C178.278 34.3443 179.977 33.827 182.159 33.827C184.18 33.827 185.787 34.2982 186.981 35.2409C188.199 36.1837 188.922 37.4826 189.151 39.138H184.983C184.731 37.8735 183.778 37.2412 182.124 37.2412C181.297 37.2412 180.655 37.402 180.195 37.724C179.759 38.046 179.541 38.4482 179.541 38.931C179.541 39.4368 179.874 39.8393 180.54 40.1381C181.206 40.4369 182.09 40.7128 183.192 40.9658C184.386 41.2417 185.477 41.5521 186.465 41.8969C187.475 42.2189 188.279 42.713 188.876 43.3799C189.473 44.0235 189.772 44.9547 189.772 46.1733C189.795 47.2308 189.519 48.1852 188.945 49.0358C188.371 49.8863 187.544 50.5532 186.465 51.036C185.385 51.5188 184.111 51.7602 182.641 51.7602Z" fill="#131313"/>
<path fill-rule="evenodd" clip-rule="evenodd" d="M47.6919 13.3983C45.1853 11.6114 42.1189 10.5605 38.8071 10.5605C34.7815 10.5605 31.118 12.1135 28.3821 14.6537H16.0886C20.2325 6.28953 28.849 0.539856 38.8071 0.539856C44.5706 0.539859 49.8849 2.46587 54.1424 5.7101L47.6919 13.3983ZM13.9795 31.0397H0.24176L6.36672 20.7857H13.9805C13.641 22.4417 13.4627 24.1565 13.4627 25.913L19.6279 25.9133L23.4711 25.913V25.9134H23.4718C23.4718 24.1152 23.7806 22.3892 24.348 20.7857H48.2145L42.0895 31.0397H24.3469H13.9795ZM38.8065 51.2865C28.8479 51.2865 20.2309 45.5364 16.0873 37.1716H28.3802C31.1164 39.7126 34.7802 41.2659 38.8065 41.2659C47.2761 41.2659 54.1419 34.3922 54.1419 25.913L64.1511 25.9128C64.1511 39.9263 52.8038 51.2865 38.8065 51.2865Z" fill="#3A65FF"/>
<path d="M24.348 20.7857H13.9805C13.6411 22.4417 13.4627 24.1565 13.4627 25.913L19.6279 25.9133L23.4712 25.913V25.9134H23.4719C23.4719 24.1152 23.7806 22.3892 24.348 20.7857Z" fill="#3A65FF"/>
</g>
<defs>
<clipPath id="clip0_203_14">
<rect width="190" height="52" fill="white"/>
</clipPath>
</defs>
</svg>
